<?xml version="1.0" encoding="UTF-8"?>
<svg id="Layer_1" data-name="Layer 1" xmlns="http://www.w3.org/2000/svg" viewBox="0 0 400 321.91">
  <defs>
    <style>
      .cls-1 {
        fill: #9f4771;
      }

      .cls-1, .cls-2, .cls-3 {
        stroke-width: 0px;
      }

      .cls-2 {
        fill: #0f1934;
      }

      .cls-3 {
        fill: #f08821;
      }
    </style>
  </defs>
  <polygon class="cls-2" points="232.34 228.12 151.49 321.41 84.32 204.49 .98 248.02 69.39 159.27 .98 113.69 69.39 68.91 196.27 152.25 221.15 .5 280.85 143.57 399.02 113.69 293.29 261.71 232.34 228.12"/>
  <polygon class="cls-3" points="168.37 93.11 250.61 1.03 316.02 118.95 400 76.66 330.27 164.39 397.99 210.99 328.92 254.74 203.3 169.51 176.16 320.87 118.6 176.92 0 205.04 107.93 58.61 168.37 93.11"/>
  <polygon class="cls-1" points="165.98 227.44 245.44 321.91 314.33 205.99 397.02 250.75 329.92 161 399 116.43 331.25 70.64 203.16 152.1 180.53 0 118.72 142.18 1 110.56 104.54 260.12 165.98 227.44"/>
</svg>